<?xml version="1.0" encoding="UTF-8"?>
<!-- Light ice background + simplified, more authentic side-profile Zamboni for favicon legibility -->
<svg xmlns="http://www.w3.org/2000/svg" width="64" height="64" viewBox="0 0 64 64" fill="none">
  <defs>
    <!-- Soft ice radial + subtle vignette for contrast on white browser UIs -->
    <radialGradient id="iceGrad" cx="50%" cy="45%" r="70%">
      <stop offset="0%" stop-color="#f3faff"/>
      <stop offset="65%" stop-color="#e2f1fa"/>
      <stop offset="100%" stop-color="#cfe3f2"/>
    </radialGradient>
    <linearGradient id="bodyBlue" x1="0" y1="28" x2="0" y2="54">
      <stop offset="0%" stop-color="#1f65d6"/>
      <stop offset="100%" stop-color="#114287"/>
    </linearGradient>
    <linearGradient id="cabPanel" x1="0" y1="0" x2="20" y2="16">
      <stop offset="0%" stop-color="#ffffff"/>
      <stop offset="100%" stop-color="#d7e6f4"/>
    </linearGradient>
    <linearGradient id="windowGlass" x1="0" y1="0" x2="0" y2="12">
      <stop offset="0%" stop-color="#dff4ff"/>
      <stop offset="100%" stop-color="#9dd0f0"/>
    </linearGradient>
    <filter id="drop" x="-50%" y="-50%" width="200%" height="200%">
      <feDropShadow dx="0" dy="1" stdDeviation="1" flood-color="#0d2a55" flood-opacity="0.4"/>
    </filter>
  </defs>
  <!-- Rounded ice tile background -->
  <rect x="2" y="2" width="60" height="60" rx="14" fill="url(#iceGrad)" stroke="#b5cedd" stroke-width="1"/>
  <!-- Zamboni (facing right): conditioner at back, cab forward-left -->
  <g filter="url(#drop)" transform="translate(8,10)">
    <!-- Wheels (partially occluded) -->
    <circle cx="12" cy="36" r="6" fill="#1c1d21" stroke="#556273" stroke-width="1"/>
    <circle cx="36" cy="36" r="6" fill="#1c1d21" stroke="#556273" stroke-width="1"/>
    <!-- Undercarriage shadow -->
    <rect x="6" y="32" width="36" height="4" rx="1" fill="#0b1c33" opacity="0.45"/>
    <!-- Main body -->
    <rect x="4" y="18" width="40" height="18" rx="2.5" fill="url(#bodyBlue)" stroke="#0a2d5c" stroke-width="1.3"/>
    <!-- Side access panel hint -->
    <rect x="8" y="21" width="14" height="9" rx="1" fill="#215fbd" opacity="0.55"/>
    <!-- White accent stripe -->
    <rect x="4" y="30" width="40" height="3" fill="#ffffff" opacity="0.55"/>
    <!-- Conditioner / resurfacing unit (rear) -->
    <rect x="42" y="19" width="5" height="17" rx="1" fill="#253a55" stroke="#0d263f" stroke-width="0.8"/>
    <!-- Cab block -->
    <rect x="14" y="8" width="22" height="14" rx="2" fill="url(#cabPanel)" stroke="#2a4d79" stroke-width="1"/>
    <!-- Window (driver front-left) -->
    <rect x="20" y="10" width="10" height="10" rx="1.5" fill="url(#windowGlass)" stroke="#0d386e" stroke-width="1"/>
    <!-- Reflection highlight -->
    <path d="M21 11 h6 a3 3 0 0 1 -6 6 z" fill="#ffffff" opacity="0.35"/>
    <!-- Headlight front -->
    <rect x="6" y="23" width="3" height="5" rx="1" fill="#ffe48a" stroke="#d2a637" stroke-width="0.8"/>
  </g>
  <!-- Minimal sparkle pixels for ice sheen (single points for favicon clarity) -->
  <g stroke="#ffffff" stroke-linecap="round" stroke-width="1">
    <line x1="22" y1="14" x2="22" y2="14" />
    <line x1="46" y1="20" x2="46" y2="20" />
    <line x1="34" y1="54" x2="34" y2="54" />
  </g>
</svg>
